<svg xmlns="http://www.w3.org/2000/svg" viewBox="0 0 23 23"><path d="M1 1h7v7h-7zM10 1h2v1h1v1h-2v-1h-1zM13 1h1v1h-1zM15 1h7v7h-7zM2 2v5h5v-5zM16 2v5h5v-5zM3 3h3v3h-3zM9 3h2v1h3v2h-1v-1h-3v3h1v1h2v1h2v-1h5v1h-3v2h-1v1h-2v2h-1v-2h-1v-1h1v-1h-1v-1h-2v-1h-1zM17 3h3v3h-3zM11 6h2v1h-1v1h-1zM13 7h1v1h-1zM1 9h1v2h-1zM3 9h5v1h-2v1h-3zM8 10h1v2h-2v-1h1zM20 10h2v1h-1v1h-1v1h-2v-1h1v-1h1zM2 11h1v2h-1v1h-1v-2h1zM14 11v1h1v-1zM4 12h1v1h-1zM10 12h1v1h-1zM3 13h1v1h-1zM5 13h4v1h-4zM11 13h1v1h-1zM17 13h1v1h1v1h-3v-1h1zM21 13h1v2h-1v1h1v1h-1v1h-1v-1h-1v-1h1v-2h1zM9 14h1v1h-1zM1 15h7v7h-7zM11 15h2v1h-1v1h1v1h1v-1h1v1h2v-2h1v2h1v1h-3v2h-2v1h-1v-1h-1v-1h1v-1h-1v-1h-2v1h1v1h-2v-4h1v1h1zM14 15h1v1h-1zM2 16v5h5v-5zM3 17h3v3h-3zM14 19v1h1v-1zM17 20h3v1h-3zM9 21h1v1h-1zM16 21h1v1h-1zM20 21h1v1h-1z"/></svg>